<svg width="18" height="18" viewBox="0 0 18 18" fill="none" xmlns="http://www.w3.org/2000/svg">
<g clip-path="url(#clip0_2432_10580)">
<path d="M12.4187 0C12.4601 0 12.5015 0 12.5452 0C12.6467 1.25373 12.1681 2.19051 11.5866 2.86889C11.0159 3.5426 10.2345 4.196 8.9706 4.09686C8.88629 2.86109 9.36561 1.99378 9.94641 1.31696C10.4851 0.686193 11.4726 0.124904 12.4187 0Z" fill="black"/>
<path d="M16.2436 13.0495C16.2436 13.062 16.2436 13.073 16.2436 13.0847C15.8884 14.1604 15.3817 15.0824 14.7635 15.9379C14.199 16.7147 13.5074 17.76 12.2724 17.76C11.2052 17.76 10.4964 17.0738 9.40273 17.0551C8.2458 17.0363 7.60957 17.6288 6.55179 17.7779C6.43079 17.7779 6.30978 17.7779 6.19113 17.7779C5.41438 17.6655 4.78751 17.0504 4.33083 16.4961C2.98421 14.8583 1.9436 12.7427 1.75 10.0354C1.75 9.77002 1.75 9.50538 1.75 9.23996C1.83197 7.30238 2.77343 5.72702 4.02482 4.96355C4.68525 4.55761 5.59315 4.21178 6.60409 4.36635C7.03735 4.43348 7.47998 4.58181 7.86796 4.72857C8.23565 4.86987 8.69546 5.12046 9.13106 5.10719C9.42615 5.0986 9.71967 4.94481 10.0171 4.8363C10.8883 4.5217 11.7423 4.16104 12.868 4.33044C14.2209 4.53497 15.1811 5.13607 15.7744 6.06348C14.63 6.79183 13.7252 7.88943 13.8798 9.76377C14.0172 11.4664 15.007 12.4625 16.2436 13.0495Z" fill="black"/>
</g>
<defs>
<clipPath id="clip0_2432_10580">
<rect width="17.7778" height="17.7778" fill="white" transform="translate(0.109375)"/>
</clipPath>
</defs>
</svg>
