<svg width="40" height="40" viewBox="0 0 40 40" fill="none" xmlns="http://www.w3.org/2000/svg">
<rect width="40" height="40" rx="20" fill="#00A3FF"/>
<g clip-path="url(#clip0_8775_14960)">
<path d="M23.4187 11C23.4601 11 23.5015 11 23.5452 11C23.6467 12.2537 23.1681 13.1905 22.5866 13.8689C22.0159 14.5426 21.2345 15.196 19.9706 15.0969C19.8863 13.8611 20.3656 12.9938 20.9464 12.317C21.4851 11.6862 22.4726 11.1249 23.4187 11Z" fill="white"/>
<path d="M27.2436 24.0495C27.2436 24.062 27.2436 24.073 27.2436 24.0847C26.8884 25.1604 26.3817 26.0824 25.7635 26.9379C25.199 27.7147 24.5074 28.76 23.2724 28.76C22.2052 28.76 21.4964 28.0738 20.4027 28.0551C19.2458 28.0363 18.6096 28.6288 17.5518 28.7779C17.4308 28.7779 17.3098 28.7779 17.1911 28.7779C16.4144 28.6655 15.7875 28.0504 15.3308 27.4961C13.9842 25.8583 12.9436 23.7427 12.75 21.0354C12.75 20.77 12.75 20.5054 12.75 20.24C12.832 18.3024 13.7734 16.727 15.0248 15.9635C15.6852 15.5576 16.5931 15.2118 17.6041 15.3663C18.0374 15.4335 18.48 15.5818 18.868 15.7286C19.2357 15.8699 19.6955 16.1205 20.1311 16.1072C20.4261 16.0986 20.7197 15.9448 21.0171 15.8363C21.8883 15.5217 22.7423 15.161 23.868 15.3304C25.2209 15.535 26.1811 16.1361 26.7744 17.0635C25.63 17.7918 24.7252 18.8894 24.8798 20.7638C25.0172 22.4664 26.007 23.4625 27.2436 24.0495Z" fill="white"/>
</g>
<defs>
<clipPath id="clip0_8775_14960">
<rect width="17.7778" height="17.7778" fill="white" transform="translate(11.1094 11)"/>
</clipPath>
</defs>
</svg>
