<svg width="345" height="362" viewBox="0 0 345 362" fill="none" xmlns="http://www.w3.org/2000/svg">
<path opacity="0.2" d="M641.163 280.698L390.518 28.6507L357.017 -5.01743C356.488 -5.54994 355.924 -6.08245 355.377 -6.5806C354.831 -7.09593 354.233 -7.59404 353.652 -8.09219C353.276 -8.40139 352.9 -8.71062 352.507 -8.98546C351.636 -9.68974 350.748 -10.3425 349.859 -10.9265C349.313 -11.3216 348.732 -11.6652 348.168 -12.0259C348.134 -12.0602 348.1 -12.0774 348.066 -12.0946C347.553 -12.4038 347.024 -12.713 346.494 -13.005C346.306 -13.1253 346.118 -13.2283 345.93 -13.3314C345.52 -13.5547 345.093 -13.778 344.649 -13.9842C344.359 -14.1388 344.085 -14.2934 343.795 -14.4136C343.453 -14.5854 343.077 -14.74 342.719 -14.8946C342.343 -15.0835 341.95 -15.2553 341.574 -15.4099C341.352 -15.5129 341.113 -15.5988 340.891 -15.6847C340.395 -15.8909 339.9 -16.0798 339.387 -16.2516C339.131 -16.3546 338.875 -16.4406 338.653 -16.5093C338.14 -16.6811 337.645 -16.8356 337.132 -16.9902C336.927 -17.0761 336.74 -17.1277 336.552 -17.162C336.039 -17.3166 335.544 -17.454 335.031 -17.5743C334.741 -17.6602 334.485 -17.7117 334.194 -17.7632C333.699 -17.8835 333.22 -18.0037 332.708 -18.0896C331.734 -18.2957 330.726 -18.4503 329.735 -18.5706C329.172 -18.6736 328.608 -18.7251 328.061 -18.7767C327.361 -18.8626 326.66 -18.897 325.943 -18.9313C325.14 -18.9829 324.337 -19 323.517 -19C322.697 -19 321.894 -19 321.091 -18.9313C320.374 -18.897 319.673 -18.8454 318.973 -18.7767C318.426 -18.7251 317.863 -18.6736 317.299 -18.5706C316.308 -18.4675 315.317 -18.2957 314.326 -18.0896C313.814 -17.9865 313.336 -17.8835 312.84 -17.7632C312.55 -17.7117 312.293 -17.6602 312.003 -17.5743C311.491 -17.454 310.995 -17.3166 310.483 -17.162C310.295 -17.1277 310.107 -17.059 309.902 -16.9902C309.389 -16.8528 308.894 -16.6811 308.381 -16.5093C308.142 -16.4406 307.886 -16.3546 307.647 -16.2516C307.134 -16.0798 306.639 -15.8909 306.143 -15.6847C305.921 -15.5988 305.682 -15.5129 305.46 -15.4099C305.084 -15.2725 304.691 -15.1007 304.316 -14.8946C303.957 -14.7572 303.581 -14.5854 303.239 -14.4136C302.949 -14.2934 302.676 -14.1388 302.385 -13.9842C301.958 -13.778 301.531 -13.5547 301.121 -13.3314C300.933 -13.2283 300.728 -13.1253 300.54 -13.005C300.011 -12.713 299.481 -12.421 298.969 -12.0946C298.934 -12.0946 298.9 -12.0602 298.866 -12.0259C298.302 -11.6823 297.721 -11.3216 297.175 -10.9265C296.269 -10.3425 295.398 -9.68974 294.527 -8.98546C294.151 -8.71062 293.775 -8.40139 293.382 -8.09219C292.801 -7.59404 292.221 -7.11311 291.657 -6.5806C291.179 -6.15116 290.717 -5.70451 290.273 -5.25789C290.171 -5.15483 290.102 -5.08612 290.017 -5.00024C289.932 -4.91435 289.863 -4.84566 289.778 -4.75978L256.534 28.6679L162.747 122.973C162.747 122.973 162.747 123.008 162.747 123.042L119.578 166.398L86.7265 199.431V199.379L43.6084 242.667C42.1222 244.161 39.7647 242.203 40.9264 240.451L86.7094 171.706L86.7094 28.6851C86.7094 2.38612 65.5091 -18.9313 39.3547 -18.9313C13.2003 -18.9313 -8 2.38612 -8 28.6851L-8 314.384C-8 340.683 13.2003 362 39.3547 362C52.4405 362 64.2792 356.675 72.8378 348.052L323.5 96.0042L574.162 348.052C582.721 356.675 594.56 362 607.645 362C633.8 362 655 340.683 655 314.384C655 301.225 649.704 289.321 641.128 280.715L641.163 280.698Z" fill="white"/>
</svg>
