<svg width="40" height="40" viewBox="0 0 40 40" fill="none" xmlns="http://www.w3.org/2000/svg">
<rect width="40" height="40" rx="20" fill="#00A3FF"/>
<path d="M26.402 18.7505C26.4853 19.1968 26.5307 19.6634 26.5307 20.1503C26.5307 23.9591 23.9816 26.6673 20.1315 26.6673C19.256 26.6676 18.3889 26.4953 17.58 26.1604C16.771 25.8255 16.036 25.3344 15.4169 24.7153C14.7978 24.0962 14.3067 23.3612 13.9718 22.5522C13.6368 21.7432 13.4646 20.8762 13.4648 20.0007C13.4646 19.1251 13.6368 18.2581 13.9718 17.4491C14.3067 16.6402 14.7978 15.9051 15.4169 15.286C16.036 14.6669 16.771 14.1758 17.58 13.8409C18.3889 13.506 19.256 13.3337 20.1315 13.334C21.9316 13.334 23.4357 13.9963 24.5897 15.0718L22.7104 16.9511V16.9463C22.0108 16.2799 21.123 15.9379 20.1315 15.9379C17.9319 15.9379 16.144 17.7963 16.144 19.9966C16.144 22.1962 17.9319 24.0586 20.1315 24.0586C22.1273 24.0586 23.4858 22.9175 23.7649 21.3504H20.1315V18.7505H26.4027H26.402Z" fill="white"/>
</svg>
